<?xml version="1.0" encoding="UTF-8" standalone="no"?>
<svg
   xmlns:dc="http://purl.org/dc/elements/1.1/"
   xmlns:cc="http://creativecommons.org/ns#"
   xmlns:rdf="http://www.w3.org/1999/02/22-rdf-syntax-ns#"
   xmlns:svg="http://www.w3.org/2000/svg"
   xmlns="http://www.w3.org/2000/svg"
   xmlns:sodipodi="http://sodipodi.sourceforge.net/DTD/sodipodi-0.dtd"
   xmlns:inkscape="http://www.inkscape.org/namespaces/inkscape"
   width="300"
   height="300"
   id="svg2"
   version="1.1"
   inkscape:version="0.91 r13725"
   sodipodi:docname="twitter.svg">
  <metadata
     id="metadata10">
    <rdf:RDF>
      <cc:Work
         rdf:about="">
        <dc:format>image/svg+xml</dc:format>
        <dc:type
           rdf:resource="http://purl.org/dc/dcmitype/StillImage" />
      </cc:Work>
    </rdf:RDF>
  </metadata>
  <defs
     id="defs8" />
  <sodipodi:namedview
     pagecolor="#ffffff"
     bordercolor="#666666"
     borderopacity="1"
     objecttolerance="10"
     gridtolerance="10"
     guidetolerance="10"
     inkscape:pageopacity="0"
     inkscape:pageshadow="2"
     inkscape:window-width="720"
     inkscape:window-height="480"
     id="namedview6"
     showgrid="false"
     inkscape:zoom="1.1125147"
     inkscape:cx="167.87145"
     inkscape:cy="153.72322"
     inkscape:window-x="24"
     inkscape:window-y="20"
     inkscape:window-maximized="0"
     inkscape:current-layer="svg2" />
  <path
     d="m 250,87.974 c -7.358,3.264 -15.267,5.469 -23.566,6.461 8.471,-5.078 14.978,-13.119 18.041,-22.701 -7.929,4.703 -16.71,8.117 -26.057,9.957 -7.484,-7.975 -18.148,-12.957 -29.95,-12.957 -22.66,0 -41.033,18.371 -41.033,41.031 0,3.216 0.363,6.348 1.062,9.351 -34.102,-1.711 -64.336,-18.047 -84.574,-42.872 -3.532,6.06 -5.556,13.108 -5.556,20.628 0,14.236 7.244,26.795 18.254,34.153 -6.726,-0.213 -13.053,-2.059 -18.585,-5.132 -0.004,0.171 -0.004,0.343 -0.004,0.516 0,19.88 14.144,36.464 32.915,40.234 -3.443,0.938 -7.068,1.439 -10.81,1.439 -2.644,0 -5.214,-0.258 -7.72,-0.736 5.222,16.301 20.375,28.165 38.331,28.495 -14.043,11.006 -31.735,17.565 -50.96,17.565 -3.312,0 -6.578,-0.194 -9.788,-0.574 18.159,11.643 39.727,18.437 62.899,18.437 75.473,0 116.746,-62.524 116.746,-116.747 0,-1.779 -0.04,-3.548 -0.119,-5.309 8.017,-5.784 14.973,-13.011 20.474,-21.239 z"
     style="fill:#4a4a4a;fill-opacity:1"
     id="path4" />
</svg>
